<svg width="274" height="274" xmlns="http://www.w3.org/2000/svg"><g fill="none" fill-rule="evenodd"><path d="M137.177.669C61.91.669.676 61.902.676 137.169c0 75.266 61.234 136.5 136.5 136.5 75.266 0 136.5-61.234 136.5-136.5 0-75.267-61.234-136.5-136.5-136.5z" fill="#C32361"/><path d="M251.953 118.473c-3.984 1.26-36.04 10.831-72.526 4.984 15.23-41.902 21.426-76.03 22.62-83.122 26.12 17.685 44.716 45.7 49.906 78.138zm-94.319-.403c-.256-.087-.512-.17-.768-.26-65.673-22.913-89.248-68.514-91.344-72.803 19.743-15.414 44.552-24.61 71.47-24.61 16.128 0 31.5 3.303 45.48 9.265-1.732 10.229-8.492 45.876-24.838 88.409zM50.49 59.03c2.637 4.52 34.592 57.496 94.642 76.93 1.517.492 3.047.954 4.588 1.388-2.924 6.623-6.107 13.254-9.44 19.785-58.147-17.424-114.57-16.696-119.663-16.592-.037-1.183-.06-2.37-.06-3.562 0-29.943 11.336-57.282 29.932-77.95zM23.017 160.857c5.207-.069 53.177-.278 107.641 14.204-19.292 34.338-40.1 63.208-43.168 67.423-32.575-15.384-56.924-45.45-64.473-81.627zm86.689 89.463c3.218-4.314 24.365-33.149 43.445-68.248 41.402 15.537 58.93 39.127 61.024 42.112-20.563 18.266-47.6 29.378-77.184 29.378-9.395 0-18.53-1.129-27.285-3.242zm117.412-39.617c-2.454-3.324-21.965-28.368-65.015-45.967a360.334 360.334 0 0 0 7.725-16.886 493.75 493.75 0 0 0 2.508-6.017c38.742 4.878 77.236-2.94 81.075-3.753-.256 27.517-10.076 52.785-26.293 72.623z" fill="#EA4C89"/></g></svg>