<?xml version="1.0" encoding="UTF-8"?>
<svg width="400px" height="400px" viewBox="0 0 400 400" version="1.1" xmlns="http://www.w3.org/2000/svg" xmlns:xlink="http://www.w3.org/1999/xlink">
    <!-- Generator: Sketch 52.6 (67491) - http://www.bohemiancoding.com/sketch -->
    <title>Artboard</title>
    <desc>Created with Sketch.</desc>
    <defs>
        <path d="M20,0 L254,0 C265.045695,-2.02906125e-15 274,8.954305 274,20 L274,173 C274,184.045695 265.045695,193 254,193 L20,193 C8.954305,193 1.3527075e-15,184.045695 0,173 L0,20 C-1.3527075e-15,8.954305 8.954305,2.02906125e-15 20,0 Z" id="path-1"></path>
    </defs>
    <g id="Artboard" stroke="none" stroke-width="1" fill="none" fill-rule="evenodd">
        <circle id="Oval" fill="#FFFFFF" cx="200" cy="200" r="200"></circle>
        <g id="Group" transform="translate(63.000000, 104.000000)">
            <mask id="mask-2" fill="white">
                <use xlink:href="#path-1"></use>
            </mask>
            <g id="Rectangle"></g>
            <path d="M103.474914,110.943564 C121.99041,129.721917 152.004197,129.72714 170.525086,110.943564 L268.863785,11.2091153 C270.027073,10.0293161 271.926521,10.0159314 273.10632,11.1792197 C273.678097,11.7429954 274,12.5124578 274,13.3154352 L274,172.116592 C274,183.65 264.348512,193 252.428433,193 L21.571567,193 C9.65796066,193 0,183.646865 0,172.116592 L1.11022302e-14,13.3154352 C1.08993241e-14,11.6585809 1.34314575,10.3154352 3,10.3154352 C3.80297737,10.3154352 4.57243976,10.6373378 5.13621549,11.2091153 L103.474914,110.943564 Z" id="Shape" fill="#C86565" mask="url(#mask-2)"></path>
            <polyline id="Path" stroke="#FFFFFF" stroke-width="11" mask="url(#mask-2)" points="0 192.566406 137 56 274 192.566406"></polyline>
            <path d="M160.293272,104.647225 C146.877215,118.452645 125.119252,118.449204 111.706728,104.647225 L13.2985536,3.39391983 C12.5287129,2.60182189 12.546756,1.33562048 13.338854,0.565779822 C13.7121563,0.20296697 14.2122089,1.07537673e-14 14.7327738,1.0658141e-14 L257.267226,-1.28785871e-14 C258.371796,-1.30814932e-14 259.267226,0.8954305 259.267226,2 C259.267226,2.52056488 259.064259,3.0206175 258.701446,3.39391983 L160.293272,104.647225 Z" id="Shape" fill="#DE5252" mask="url(#mask-2)"></path>
        </g>
    </g>
</svg>