<svg width="256" height="256" xmlns="http://www.w3.org/2000/svg" xmlns:xlink="http://www.w3.org/1999/xlink"><defs><circle id="a" cx="128" cy="128" r="128"/></defs><g fill="none" fill-rule="evenodd"><mask id="b" fill="#fff"><use xlink:href="#a"/></mask><use fill="#FFF" fill-rule="nonzero" xlink:href="#a"/><path d="M93.84 255.474c0-3.257-.117-11.902-.185-23.365-38.107 8.3-46.147-18.42-46.147-18.42-6.23-15.874-15.213-20.1-15.213-20.1-12.44-8.518.942-8.35.942-8.35 13.75.97 20.982 14.162 20.982 14.162 12.22 20.993 32.07 14.93 39.874 11.412 1.244-8.873 4.785-14.93 8.696-18.362-30.42-3.466-62.405-15.258-62.405-67.905 0-14.997 5.34-27.27 14.104-36.867-1.412-3.475-6.113-17.45 1.347-36.36 0 0 11.497-3.695 37.67 14.085 10.925-3.053 22.65-4.572 34.297-4.63 11.64.058 23.356 1.577 34.298 4.63 26.156-17.78 37.636-14.086 37.636-14.086 7.476 18.91 2.775 32.886 1.37 36.36 8.78 9.6 14.08 21.87 14.08 36.867 0 52.78-32.035 64.396-62.548 67.795 4.912 4.242 9.293 12.626 9.293 25.446 0 18.363-.168 33.182-.168 37.686 0 3.677-67.923 3.644-67.923.002z" fill="#B03AD3" fill-rule="nonzero" mask="url(#b)"/></g></svg>