<?xml version="1.0" encoding="UTF-8"?>
<svg width="274px" height="274px" viewBox="0 0 274 274" version="1.1" xmlns="http://www.w3.org/2000/svg" xmlns:xlink="http://www.w3.org/1999/xlink">
    <!-- Generator: Sketch 52.6 (67491) - http://www.bohemiancoding.com/sketch -->
    <title>github</title>
    <desc>Created with Sketch.</desc>
    <g id="Page-1" stroke="none" stroke-width="1" fill="none" fill-rule="evenodd">
        <g id="Artboard" transform="translate(-13.000000, -13.000000)" fill-rule="nonzero">
            <g id="github" transform="translate(13.000000, 13.000000)">
                <circle id="bg" fill="#8D1BD5" cx="137" cy="137" r="137"></circle>
                <path d="M0,137.395 C0,198.097 39.25,249.589 93.69,267.757 C100.545,269.022 103.043,264.779 103.043,261.137 C103.043,257.88 102.926,249.235 102.858,237.772 C64.751,246.072 56.711,219.352 56.711,219.352 C50.481,203.478 41.498,199.252 41.498,199.252 C29.058,190.734 42.44,190.902 42.44,190.902 C56.19,191.872 63.422,205.064 63.422,205.064 C75.642,226.057 95.492,219.994 103.296,216.476 C104.54,207.603 108.081,201.546 111.992,198.114 C81.572,194.648 49.587,182.856 49.587,130.209 C49.587,115.212 54.927,102.939 63.691,93.342 C62.279,89.867 57.578,75.892 65.038,56.982 C65.038,56.982 76.535,53.287 102.708,71.067 C113.633,68.014 125.358,66.495 137.005,66.437 C148.645,66.495 160.361,68.014 171.303,71.067 C197.459,53.287 208.939,56.981 208.939,56.981 C216.415,75.891 211.714,89.867 210.309,93.341 C219.089,102.941 224.389,115.211 224.389,130.208 C224.389,182.988 192.354,194.604 161.841,198.003 C166.753,202.245 171.134,210.629 171.134,223.449 C171.134,241.812 170.966,256.631 170.966,261.135 C170.966,264.812 173.439,269.088 180.386,267.747 C234.783,249.538 274,198.08 274,137.395 C274,61.512 212.655,0 136.987,0 C61.345,0 0,61.512 0,137.395 Z" id="Shape" fill="#FFFFFF"></path>
            </g>
        </g>
    </g>
</svg>