<svg width="274" height="274" xmlns="http://www.w3.org/2000/svg"><g fill="none"><path d="M0 137c0 75.35 61.65 137 137 137s137-61.65 137-137S213.035 0 137 0C61.65 0 0 61.65 0 137z" fill="#A2E40A"/><path d="M200.02 197.965c-2.74 4.11-7.535 5.48-11.645 2.74-32.195-19.865-72.61-23.975-120.56-13.015-4.795 1.37-8.905-2.055-10.275-6.165-1.37-4.795 2.055-8.905 6.165-10.275 52.06-11.645 97.27-6.85 132.89 15.07 4.795 2.055 5.48 7.535 3.425 11.645zm16.44-37.675c-3.425 4.795-9.59 6.85-14.385 3.425-36.99-22.605-93.16-29.455-136.315-15.755-5.48 1.37-11.645-1.37-13.015-6.85-1.37-5.48 1.37-11.645 6.85-13.015 50.005-15.07 111.655-7.535 154.125 18.495 4.11 2.055 6.165 8.905 2.74 13.7zm1.37-38.36C173.99 95.9 100.695 93.16 58.91 106.175c-6.85 2.055-13.7-2.055-15.755-8.22-2.055-6.85 2.055-13.7 8.22-15.755 48.635-14.385 128.78-11.645 179.47 18.495 6.165 3.425 8.22 11.645 4.795 17.81-3.425 4.795-11.645 6.85-17.81 3.425z" fill="#222"/></g></svg>