<svg width="1644" height="274" viewBox="0 0 1644 274" xmlns="http://www.w3.org/2000/svg"><title>links</title><g fill="none" fill-rule="evenodd"><path d="M86.172 245.822c-31.746 0-61.295-9.278-86.172-25.18 4.398.52 8.873.784 13.41.784 26.336 0 50.575-8.96 69.814-23.99-24.598-.454-45.36-16.657-52.512-38.923 3.432.654 6.954 1.005 10.576 1.005 5.127 0 10.093-.684 14.81-1.965-25.716-5.148-45.092-27.8-45.092-54.954 0-.237 0-.472.004-.706 7.58 4.198 16.247 6.72 25.462 7.01C21.39 98.854 11.464 81.7 11.464 62.256c0-10.27 2.772-19.898 7.61-28.175C46.8 67.99 88.22 90.3 134.94 92.638c-.957-4.102-1.455-8.38-1.455-12.772 0-30.95 25.17-56.043 56.216-56.043 16.17 0 30.78 6.807 41.034 17.7 12.804-2.515 24.835-7.18 35.696-13.6-4.197 13.085-13.11 24.068-24.717 31.005 11.37-1.355 22.206-4.368 32.287-8.825-7.537 11.24-17.068 21.11-28.05 29.012.108 2.403.162 4.82.162 7.25 0 74.06-56.542 159.458-159.94 159.458l58.797-113.94" fill="#FFF"/><path d="M410.987 0C335.345 0 274 61.512 274 137.395c0 60.702 39.25 112.194 93.69 130.362 6.855 1.265 9.353-2.978 9.353-6.62 0-3.257-.117-11.902-.185-23.365-38.107 8.3-46.147-18.42-46.147-18.42-6.23-15.874-15.213-20.1-15.213-20.1-12.44-8.518.942-8.35.942-8.35 13.75.97 20.982 14.162 20.982 14.162 12.22 20.993 32.07 14.93 39.874 11.412 1.244-8.873 4.785-14.93 8.696-18.362-30.42-3.466-62.405-15.258-62.405-67.905 0-14.997 5.34-27.27 14.104-36.867-1.412-3.475-6.113-17.45 1.347-36.36 0 0 11.497-3.695 37.67 14.085 10.925-3.053 22.65-4.572 34.297-4.63 11.64.058 23.356 1.577 34.298 4.63 26.156-17.78 37.636-14.086 37.636-14.086 7.476 18.91 2.775 32.886 1.37 36.36 8.78 9.6 14.08 21.87 14.08 36.867 0 52.78-32.035 64.396-62.548 67.795 4.912 4.242 9.293 12.626 9.293 25.446 0 18.363-.168 33.182-.168 37.686 0 3.677 2.473 7.953 9.42 6.612C508.783 249.538 548 198.08 548 137.395 548 61.512 486.655 0 410.987 0" fill="#161614"/><path d="M548 137c0 75.35 61.65 137 137 137s137-61.65 137-137S761.035 0 685 0c-75.35 0-137 61.65-137 137z" fill="#A2E40A"/><path d="M748.02 197.965c-2.74 4.11-7.535 5.48-11.645 2.74-32.195-19.865-72.61-23.975-120.56-13.015-4.795 1.37-8.905-2.055-10.275-6.165-1.37-4.795 2.055-8.905 6.165-10.275 52.06-11.645 97.27-6.85 132.89 15.07 4.795 2.055 5.48 7.535 3.425 11.645zM764.46 160.29c-3.425 4.795-9.59 6.85-14.385 3.425-36.99-22.605-93.16-29.455-136.315-15.755-5.48 1.37-11.645-1.37-13.015-6.85-1.37-5.48 1.37-11.645 6.85-13.015 50.005-15.07 111.655-7.535 154.125 18.495 4.11 2.055 6.165 8.905 2.74 13.7zM765.83 121.93c-43.84-26.03-117.135-28.77-158.92-15.755-6.85 2.055-13.7-2.055-15.755-8.22-2.055-6.85 2.055-13.7 8.22-15.755 48.635-14.385 128.78-11.645 179.47 18.495 6.165 3.425 8.22 11.645 4.795 17.81-3.425 4.795-11.645 6.85-17.81 3.425z" fill="#222"/><g><g transform="translate(822 37)"><rect fill="#FFF" width="274" height="209" rx="20"/><path d="M10 20l95.922 100.454c17.164 17.975 44.987 17.98 62.156 0L264 20v159.01c0 11.04-8.947 19.99-19.997 19.99H29.997C18.953 199 10 190.047 10 179.01V20z" fill="#FF5252"/><path d="M244 10l-86.37 91.212c-11.393 12.033-29.87 12.03-41.26 0L30 10h214z" fill="#FF5252"/><rect stroke="#FFF" stroke-width="20" x="10" y="10" width="254" height="189" rx="20"/></g></g><path d="M1354.878 0h-243.755C1102.77 0 1096 6.77 1096 15.122v243.756c0 8.35 6.77 15.122 15.123 15.122h131.23V167.893h-35.708V126.54h35.707V96.046c0-35.39 21.615-54.662 53.187-54.662 15.12 0 28.118 1.126 31.907 1.63v36.985l-21.898.01c-17.17 0-20.494 8.16-20.494 20.13v26.403h40.948l-5.332 41.353h-35.616V274h69.822c8.35 0 15.122-6.77 15.122-15.122V15.122C1370 6.77 1363.23 0 1354.878 0" fill="#375085"/><path d="M1456.172 245.8c-31.746 0-61.295-9.278-86.172-25.18 4.398.52 8.873.784 13.41.784 26.336 0 50.575-8.96 69.814-23.99-24.598-.454-45.36-16.657-52.512-38.923 3.432.655 6.954 1.006 10.576 1.006 5.127 0 10.093-.684 14.81-1.965-25.716-5.147-45.092-27.8-45.092-54.953 0-.236 0-.47.004-.705 7.58 4.198 16.247 6.72 25.462 7.01-15.083-10.05-25.008-27.204-25.008-46.648 0-10.27 2.772-19.898 7.61-28.175 27.726 33.906 69.147 56.218 115.867 58.555-.957-4.102-1.455-8.38-1.455-12.772 0-30.95 25.17-56.043 56.216-56.043 16.17 0 30.78 6.807 41.034 17.7 12.804-2.515 24.835-7.18 35.696-13.6-4.197 13.085-13.11 24.068-24.717 31.005 11.37-1.355 22.206-4.368 32.287-8.825-7.537 11.24-17.068 21.11-28.05 29.012.108 2.403.162 4.82.162 7.25 0 74.06-56.542 159.458-159.94 159.458l58.797-113.94" fill="#55ACEE"/></g></svg>