<?xml version="1.0" encoding="UTF-8" standalone="no"?>
<svg width="761px" height="305px" viewBox="0 0 761 305" version="1.1" xmlns="http://www.w3.org/2000/svg" xmlns:xlink="http://www.w3.org/1999/xlink">
    <title>comtek</title>
    <defs></defs>
    <g id="Page-1" stroke="none" stroke-width="1" fill="none" fill-rule="evenodd" sketch:type="MSPage">
        <g id="comtek" sketch:type="MSLayerGroup">
            <text id="connects-you." sketch:type="MSTextLayer" font-family="Hiragino Maru Gothic Pro" font-size="72" font-weight="normal">
                <tspan x="177" y="288" fill="#7ED321">c</tspan>
                <tspan x="216.888" y="288" fill="#555555">onnects you.</tspan>
            </text>
            <path d="M450.4,135.2 C450.4,110.8 441,96.6 417.4,96.6 C395.2,96.6 388,108 382.2,118.4 C379.6,104.6 370,96.6 352.4,96.6 C332.8,96.6 324.4,107.8 319.4,119.6 C320,116.6 320.8,112.6 320.8,110 L320.8,105.8 C320.8,100.6 317.2,98 312.2,98 C306.6,98 302.8,100.6 302.8,105.8 L302.8,203.2 C302.8,208.6 306.4,211.2 312,211.2 C317.2,211.2 320.8,208.6 320.8,203.2 L320.8,145.2 C320.8,138.6 322.6,131.4 326.2,126 C331,118.8 337.4,112.6 348,112.6 C362.2,112.6 367.2,122.2 367.2,139.2 L367.2,203.2 C367.2,208.6 370.6,211.2 376.2,211.2 C381.4,211.2 385.2,208.6 385.2,203.2 L385.2,144.2 C385.2,138.2 387.6,130.4 390.6,126.2 C395.4,119 402.4,112.6 413,112.6 C427.4,112.6 432.2,122.2 432.2,139.2 L432.2,203.2 C432.2,208.6 435.6,211.2 441.2,211.2 C446.4,211.2 450.4,208.6 450.4,203.2 L450.4,135.2 Z M490,99.2 L474.6,99.2 C469.6,99.2 467.4,102.6 467.4,107.2 C467.4,111.8 469.6,115 474.4,115 L490,115 L490,183.6 C490,204.6 502,212.8 518.4,212.8 C527,212.8 532.4,211.2 538.2,208.4 C541.2,206.8 542.4,204 542.4,201.2 C542.4,199.8 542.2,198.2 541.6,196.8 C540.4,193.8 538,191.6 535,191.6 C533.8,191.6 532.6,192 531.4,192.6 C528,194.6 524.6,196 519.6,196 C512.2,196 508,191.8 508,182 L508,115 L533.6,115 C538.4,115 541,111.8 541,107.2 C541,102.4 538.6,99.2 533.6,99.2 L508,99.2 L508,75 C508,69.8 504.2,67 499,67 C493.4,67 490,69.8 490,75 L490,99.2 Z M641.8,158 C648,158 651.8,154.2 651.8,147 L651.8,145.4 C649.8,119.2 633.4,96.4 604.2,96.4 C571.6,96.4 553.6,120.6 553.6,155.2 C553.6,189.8 572.6,213 605.4,213 C631.4,213 643,199.8 649.4,186.6 C650.2,185.4 650.4,184.2 650.4,183 C650.4,179.4 647.6,177 644.2,176 C642.8,175.6 641.4,175.2 640,175.2 C637.2,175.2 634.6,176.6 632.8,180.2 C628,190.8 620,198 605.6,198 C584,198 571.8,182.6 571.4,158 L641.8,158 Z M572,143.4 C574.6,123.8 585,111 604.2,111 C622.6,111 631.2,125.6 633.6,139.8 L633.6,140.8 C633.6,142.6 632.8,143.4 630.6,143.4 L572,143.4 Z M691.8,170.6 L707,156 L744.2,208 C745.8,210.2 748.4,211.2 751,211.2 C753,211.2 754.8,210.8 756.4,209.8 C759,208.2 761,205.2 761,202.2 C761,200.6 760.6,199.2 759.6,197.8 L719.8,144.8 L753.6,113.2 C755.4,111.4 756.2,109.6 756.2,107.6 C756.2,105.4 755,103 753.2,101 C751.6,99 749.2,98 746.6,98 C744.6,98 742.4,98.8 740.6,100.6 L691.8,149.2 L691.8,60.4 C691.8,55.2 688.2,53 683,53 C677.4,53 673.8,55.6 673.8,60.8 L673.8,203.2 C673.8,208.6 677.2,211.2 682.8,211.2 C688.2,211.2 691.8,208.6 691.8,203.2 L691.8,170.6 Z" id="omtek-2" fill="#555555" sketch:type="MSShapeGroup"></path>
            <path d="M229.5,213 C261.808658,213 288,186.808658 288,154.5 C288,122.191342 261.808658,96 229.5,96 C197.191342,96 171,122.191342 171,154.5 C171,186.808658 197.191342,213 229.5,213 Z" id="O" fill="#555555" sketch:type="MSShapeGroup"></path>
            <path d="M207,142 L207,174 L251,174 L251,142 L207,142 Z M223,136 L223,142 L236,142 L236,136 L223,136 Z" id="jack" fill="#FFFFFF" sketch:type="MSShapeGroup"></path>
            <g id="plug+jack" sketch:type="MSShapeGroup">
                <g id="jack" transform="translate(172.551680, 181.946701) rotate(28.000000) translate(-172.551680, -181.946701) translate(138.551680, 139.446701)">
                    <path d="M30.5934061,6.53905089 L30.5934061,12.4257043 L15.5606035,38.6256636 L21.8567848,42.0119818 L30.5934057,26.6178377 L30.5934061,57.7001658 L56.0143639,57.7001658 L56.0143639,6.53905089 L30.5934061,6.53905089 Z" id="Rectangle-3" fill="#BFBFBF" transform="translate(35.593406, 32.039051) rotate(-318.000000) translate(-35.593406, -32.039051) "></path>
                    <path d="M-0.140874107,84.6223412 L35.4259067,70.989624 L44.6525912,60.9580078 L17.159183,36.248291 L8.10339689,46.454834 L-0.140874107,84.6223412 Z" id="C-2" fill="#7ED321"></path>
                </g>
                <path d="M28.3344117,25.9719759 C8.88220887,45.8470753 -0.843746667,72.0968128 -0.843746667,104.721976 C-0.843746667,138.097143 8.88220887,164.534378 28.3344117,184.034476 C47.1382078,203.347072 72.1014937,213.003226 103.225018,213.003226 C118.415557,213.003226 132.128548,211.936925 145.072296,207.927063 C155.51783,204.691126 167.8418,196.816406 167.8418,196.816406 L146.07349,178.933594 C146.07349,178.933594 122.24401,189.453282 103.225018,189.253235 C83.5957065,189.046768 65.2636752,187.398438 48.2476807,171.471985 C31.2316861,155.545532 19.2567749,134.909627 19.2567749,104.721976 C19.2567749,75.2843287 26.2536472,54.2220683 42.2476807,37.5344849 C57.5933074,21.9719071 78.5855613,15.1907349 103.225018,15.1907349 C119.810825,15.1907349 139.828872,23.4877533 146.07349,26.3540039 C147.58588,26.7407227 147.936527,26.7570801 149.055179,26.3540039 C150.173831,25.9509277 151.228389,24.5622209 151.921634,23.0383301 C152.92554,20.831543 153.291926,17.7354737 151.493656,15.9335938 C148.101169,12.5342988 124.576783,0.943128275 103.225017,-0.208688422 C73.2283511,-1.82685248 47.3543434,6.28437744 28.3344117,25.9719759 Z" id="C" fill="#7ED321"></path>
            </g>
        </g>
    </g>
</svg>