<svg width="564" height="611" xmlns="http://www.w3.org/2000/svg"><defs><filter x="-50%" y="-50%" width="200%" height="200%" filterUnits="objectBoundingBox" id="a"><feMorphology radius="4" in="SourceAlpha" operator="dilate" result="shadowSpreadInner1"/><feOffset dx="-4" dy="4" in="shadowSpreadInner1" result="shadowOffsetInner1"/><feGaussianBlur stdDeviation="10" in="shadowOffsetInner1" result="shadowBlurInner1"/><feComposite in="shadowBlurInner1" in2="SourceAlpha" operator="arithmetic" k2="-1" k3="1" result="shadowInnerInner1"/><feColorMatrix values="0 0 0 0 0 0 0 0 0 0 0 0 0 0 0 0 0 0 0.525 0" in="shadowInnerInner1" result="shadowMatrixInner1"/><feMerge><feMergeNode in="SourceGraphic"/><feMergeNode in="shadowMatrixInner1"/></feMerge></filter><filter x="-50%" y="-50%" width="200%" height="200%" filterUnits="objectBoundingBox" id="b"><feMorphology radius="4" in="SourceAlpha" operator="dilate" result="shadowSpreadInner1"/><feOffset dx="-4" dy="4" in="shadowSpreadInner1" result="shadowOffsetInner1"/><feGaussianBlur stdDeviation="10" in="shadowOffsetInner1" result="shadowBlurInner1"/><feComposite in="shadowBlurInner1" in2="SourceAlpha" operator="arithmetic" k2="-1" k3="1" result="shadowInnerInner1"/><feColorMatrix values="0 0 0 0 0 0 0 0 0 0 0 0 0 0 0 0 0 0 0.525 0" in="shadowInnerInner1" result="shadowMatrixInner1"/><feMerge><feMergeNode in="SourceGraphic"/><feMergeNode in="shadowMatrixInner1"/></feMerge></filter><filter x="-50%" y="-50%" width="200%" height="200%" filterUnits="objectBoundingBox" id="c"><feMorphology radius="4" in="SourceAlpha" operator="dilate" result="shadowSpreadInner1"/><feOffset dx="-4" dy="4" in="shadowSpreadInner1" result="shadowOffsetInner1"/><feGaussianBlur stdDeviation="10" in="shadowOffsetInner1" result="shadowBlurInner1"/><feComposite in="shadowBlurInner1" in2="SourceAlpha" operator="arithmetic" k2="-1" k3="1" result="shadowInnerInner1"/><feColorMatrix values="0 0 0 0 0 0 0 0 0 0 0 0 0 0 0 0 0 0 0.525 0" in="shadowInnerInner1" result="shadowMatrixInner1"/><feMerge><feMergeNode in="SourceGraphic"/><feMergeNode in="shadowMatrixInner1"/></feMerge></filter></defs><g fill="none" fill-rule="evenodd"><path d="M30.719.602S.004 29.758.004 174.906c0 145.149 30.715 174.305 30.715 174.305h164.437c5.526 0 10.006-4.471 10.006-10V10.602c0-5.523-4.477-10-10.006-10H30.72z" fill-opacity=".25" fill="#FFF"/><path d="M30.719.602l81.64 119.562v150.938l85.15 71.667c4.226 3.558 7.653 1.97 7.653-3.557V10.6c0-5.523-4.477-10-10.006-10H30.72z" fill-opacity=".15" fill="#000"/><path d="M30.719.602l44.229 64.773h63.298l59.73-57.818c3.969-3.842 2.71-6.955-2.82-6.955H30.72z" fill-opacity=".05" fill="#000"/><path d="M375.662 21.145c-5.528 0-10.01 4.482-10.01 10.008v288.689c0 5.527 4.482 10.008 10.01 10.008h157.527s29.948-52.092 29.948-154.353c0-102.26-29.948-154.352-29.948-154.352H375.662z" fill-opacity=".25" fill="#FFF"/><path d="M375.662 21.145c-5.528 0-6.702 3.02-2.625 6.74l92.899 84.81v117.61c0 5.523 2.688 13.58 6.005 17.995l61.248 81.55s29.948-52.092 29.948-154.353c0-102.26-29.948-154.352-29.948-154.352H375.662z" fill-opacity=".15" fill="#000"/><path d="M375.662 21.145c-5.528 0-6.707 3.014-2.63 6.737l66.42 60.636h50.958l42.779-67.373H375.662z" fill-opacity=".05" fill="#000"/><path d="M170.137 413.31c0-5.526 4.478-10.006 10-10.006h209.317c5.523 0 10 4.475 10 10.007v114.2s0 82.997-114.658 82.997c-114.66 0-114.66-82.996-114.66-82.996V413.31z" fill-opacity=".25" fill="#FFF"/><path d="M177.883 409.633c-4.278-3.495-3.268-6.33 2.255-6.33h209.316c5.523 0 10 4.476 10 10.008v114.2s0 41.197-40.097 65.542l-106.88-122.467-74.594-60.953z" fill-opacity=".15" fill="#000"/><path d="M214.89 439.872l-37.009-30.24c-4.277-3.495-3.266-6.328 2.257-6.328h209.316c5.523 0 6.564 2.884 2.337 6.432l-35.9 30.136H214.889z" fill-opacity=".05" fill="#000"/><rect fill="#4A4A4A" filter="url(#a)" x="71" y="61" width="70" height="239" rx="10"/><rect fill="#4A4A4A" filter="url(#b)" x="435" y="85" width="60" height="190" rx="10"/><path d="M211.088 568.473c0 5.525 4.486 10.004 10.002 10.004h127.2a10 10 0 0 0 10.002-10.004v-86.447s0-45.374-73.602-45.374-73.602 45.374-73.602 45.374v86.447z" fill="#4A4A4A" filter="url(#c)" transform="matrix(1 0 0 -1 0 1015)"/></g></svg>