<?xml version="1.0" encoding="UTF-8" standalone="no"?>
<svg width="979px" height="1314px" viewBox="0 0 979 1314" version="1.1" xmlns="http://www.w3.org/2000/svg" xmlns:xlink="http://www.w3.org/1999/xlink" xmlns:sketch="http://www.bohemiancoding.com/sketch/ns">
    <!-- Generator: Sketch 3.2.2 (9983) - http://www.bohemiancoding.com/sketch -->
    <title>royal cruise 1</title>
    <desc>Created with Sketch.</desc>
    <defs></defs>
    <g id="Page-1" stroke="none" stroke-width="1" fill="none" fill-rule="evenodd" sketch:type="MSPage">
        <g id="royal-cruise-1" sketch:type="MSLayerGroup" fill="#705995">
            <path d="M435.279483,358.078125 C434.326431,337.911751 433.239515,324.513996 432,320.2 L248.287682,238.715073 C243.156443,236.662577 239,230.523659 239,225.001813 L239,169.998187 C239,164.480883 243.478763,160 249.003597,160 L428.996403,160 C434.51855,160 441.001063,155.997874 443.469499,151.061002 L459.530514,100.080468 C461.996418,95.1486597 468.476303,91.14147 473.998087,91.14147 L489.000013,91.14147 L504.001938,91.14147 C509.518843,91.14147 516.001075,95.1435957 518.469511,100.080468 L534.530501,151.061002 C536.996405,155.99281 543.478763,160 549.003597,160 L728.996403,160 C734.51855,160 739,164.476341 739,169.998187 L739,225.001813 C739,230.519117 734.841763,236.663295 729.712318,238.715073 L547,319.8 C545.886491,323.719552 544.892614,337.358545 544.006202,358.078125 L435.279483,358.078125 Z M440.0272,968.078125 C431.325455,1055.57939 382.786066,1251.54348 97.6305259,943.793452 C97.630528,943.79345 128.603238,932.040768 162.168858,921.448257 C68.8601192,895.073425 9.38081713,794.247025 9.38081713,794.247025 C9.38081713,794.247025 -10.8114501,951.581938 9.38081713,1018.68919 C12.3409833,1027.38547 38.9412964,973.573649 43.3363429,983.567398 C86.3957727,1081.4788 214.723001,1234.65848 417.447159,1275 C439.954098,1279.47882 452.000013,1275.00002 489.000013,1313.17793 C526.81297,1275.00002 538.858854,1279.47882 561.365793,1275 C764.089951,1234.65848 892.41718,1081.4788 935.476609,983.567398 C939.871656,973.573649 966.471969,1027.38547 969.432135,1018.68919 C989.624402,951.581938 969.432135,794.247025 969.432135,794.247025 C969.432135,794.247025 909.952833,895.073425 816.644094,921.448257 C850.209715,932.040768 881.182424,943.79345 881.182426,943.793452 C601.122667,1246.04393 549.844336,1058.55497 539.543913,968.078125 L440.0272,968.078125 Z" id="anchor" sketch:type="MSShapeGroup"></path>
            <path d="M489,151 C530.421356,151 564,117.197499 564,75.5 C564,33.8025014 530.421356,0 489,0 C447.578644,0 414,33.8025014 414,75.5 C414,117.197499 447.578644,151 489,151 L489,151 Z M489.5,113 C510.210678,113 527,95.9868205 527,75 C527,54.0131795 510.210678,37 489.5,37 C468.789322,37 452,54.0131795 452,75 C452,95.9868205 468.789322,113 489.5,113 L489.5,113 Z" id="anchor-ring" sketch:type="MSShapeGroup"></path>
            <g id="crown-+-bg" transform="translate(105.000000, 408.000000)" sketch:type="MSShapeGroup">
                <path d="M384.016393,0.0781249984 C384.016393,24.5097656 324.564459,78.6171875 346.232427,123.28125 C346.929214,125.115746 347.591965,126.900073 348.2222,128.63551 C344.139171,126.934453 339.690723,126 335.035714,126 C315.173188,126 299.071429,143.01318 299.071429,164 C299.071429,184.98682 315.173188,202 335.035714,202 C343.433351,202 351.158752,198.9589 357.279269,193.86214 C345.015979,280.251465 256.270652,269.58334 214.390209,220.849988 C221.956683,215.919797 227,207.082201 227,197 C227,181.536027 215.135546,169 200.5,169 C185.864454,169 174,181.536027 174,197 C174,212.463973 185.864454,225 200.5,225 C201.055759,225 201.607523,224.981923 202.154792,224.946296 C197.669466,309.41023 135.866774,318.971624 97.1004618,267.240716 C93.8972662,262.022509 90.7536061,257.168655 87.6725803,252.654889 C100.325696,250.540367 110,238.96391 110,225 C110,209.536027 98.1355459,197 83.5,197 C71.4852071,197 61.3379357,205.448404 58.0890965,217.029532 C22.1007443,183.228926 0.0486501094,198.104302 0.0486505682,198.104302 C71.6673026,260.562306 131.402716,410 131.402716,410 L384.016401,410 L384.016393,0.0781249984 Z M384.016408,0.0781249984 C384.016408,24.5097656 443.468342,78.6171875 421.800374,123.28125 C421.103587,125.115746 420.440836,126.900073 419.810601,128.63551 C423.89363,126.934453 428.342078,126 432.997087,126 C452.859613,126 468.961372,143.01318 468.961372,164 C468.961372,184.98682 452.859613,202 432.997087,202 C424.59945,202 416.874049,198.9589 410.753532,193.86214 C423.016822,280.251465 511.762149,269.58334 553.642592,220.849988 C546.076118,215.919797 541.032801,207.082201 541.032801,197 C541.032801,181.536027 552.897255,169 567.532801,169 C582.168347,169 594.032801,181.536027 594.032801,197 C594.032801,212.463973 582.168347,225 567.532801,225 C566.977042,225 566.425278,224.981923 565.878009,224.946296 C570.363335,309.41023 632.166027,318.971624 670.932339,267.240716 C674.135535,262.022509 677.279195,257.168655 680.360221,252.654889 C667.707105,250.540367 658.032801,238.96391 658.032801,225 C658.032801,209.536027 669.897255,197 684.532801,197 C696.547594,197 706.694865,205.448404 709.943704,217.029532 C745.932057,183.228926 767.984151,198.104302 767.98415,198.104302 C696.365498,260.562306 636.630085,410 636.630085,410 L384.016401,410 L384.016408,0.0781249984 Z M132,460 L132,510 L637,510 L637,460 L132,460 Z" id="crown"></path>
            </g>
        </g>
    </g>
</svg>