<?xml version="1.0" encoding="UTF-8" standalone="no"?>
<svg width="979px" height="1314px" viewBox="0 0 979 1314" version="1.1" xmlns="http://www.w3.org/2000/svg" xmlns:xlink="http://www.w3.org/1999/xlink" xmlns:sketch="http://www.bohemiancoding.com/sketch/ns">
    <!-- Generator: Sketch 3.2.2 (9983) - http://www.bohemiancoding.com/sketch -->
    <title>royal cruise 1</title>
    <desc>Created with Sketch.</desc>
    <defs></defs>
    <g id="Page-1" stroke="none" stroke-width="1" fill="none" fill-rule="evenodd" sketch:type="MSPage">
        <g id="royal-cruise-1" sketch:type="MSLayerGroup" fill="#0006A1">
            <path d="M435.279483,358.078125 C434.326431,337.911751 433.239515,324.513996 432,320.2 L248.287682,238.715073 C243.156443,236.662577 239,230.523659 239,225.001813 L239,169.998187 C239,164.480883 243.478763,160 249.003597,160 L428.996403,160 C434.51855,160 441.001063,155.997874 443.469499,151.061002 L459.530514,100.080468 C461.996418,95.1486597 468.476303,91.14147 473.998087,91.14147 L489.000013,91.14147 L504.001938,91.14147 C509.518843,91.14147 516.001075,95.1435957 518.469511,100.080468 L534.530501,151.061002 C536.996405,155.99281 543.478763,160 549.003597,160 L728.996403,160 C734.51855,160 739,164.476341 739,169.998187 L739,225.001813 C739,230.519117 734.841763,236.663295 729.712318,238.715073 L547,319.8 C545.886491,323.719552 544.892614,337.358545 544.006202,358.078125 L435.279483,358.078125 Z M440.0272,968.078125 C431.325455,1055.57939 382.786066,1251.54348 97.6305259,943.793452 C97.630528,943.79345 128.603238,932.040768 162.168858,921.448257 C68.8601192,895.073425 9.38081713,794.247025 9.38081713,794.247025 C9.38081713,794.247025 -10.8114501,951.581938 9.38081713,1018.68919 C12.3409833,1027.38547 38.9412964,973.573649 43.3363429,983.567398 C86.3957727,1081.4788 214.723001,1234.65848 417.447159,1275 C439.954098,1279.47882 452.000013,1275.00002 489.000013,1313.17793 C526.81297,1275.00002 538.858854,1279.47882 561.365793,1275 C764.089951,1234.65848 892.41718,1081.4788 935.476609,983.567398 C939.871656,973.573649 966.471969,1027.38547 969.432135,1018.68919 C989.624402,951.581938 969.432135,794.247025 969.432135,794.247025 C969.432135,794.247025 909.952833,895.073425 816.644094,921.448257 C850.209715,932.040768 881.182424,943.79345 881.182426,943.793452 C601.122667,1246.04393 549.844336,1058.55497 539.543913,968.078125 L440.0272,968.078125 Z" id="anchor" sketch:type="MSShapeGroup"></path>
            <path d="M489,151 C530.421356,151 564,117.197499 564,75.5 C564,33.8025014 530.421356,0 489,0 C447.578644,0 414,33.8025014 414,75.5 C414,117.197499 447.578644,151 489,151 L489,151 Z M489.5,113 C510.210678,113 527,95.9868205 527,75 C527,54.0131795 510.210678,37 489.5,37 C468.789322,37 452,54.0131795 452,75 C452,95.9868205 468.789322,113 489.5,113 L489.5,113 Z" id="anchor-ring" sketch:type="MSShapeGroup"></path>
            <g id="crown" transform="translate(105.000000, 410.000000)" sketch:type="MSShapeGroup">
                <path d="M384.274325,0.837258145 L384.499993,2.07163647 C389.940964,28.0421736 442.387846,78.9108854 421.832624,121.28125 C421.135837,123.115746 420.473086,124.900073 419.842851,126.63551 C423.92588,124.934453 428.374328,124 433.029337,124 C452.891863,124 468.993623,141.01318 468.993623,162 C468.993623,182.98682 452.891863,200 433.029337,200 C424.6317,200 416.906299,196.9589 410.785782,191.86214 C423.049072,278.251465 511.794399,267.58334 553.674842,218.849988 C546.108368,213.919797 541.065051,205.082201 541.065051,195 C541.065051,179.536027 552.929505,167 567.565051,167 C582.200597,167 594.065051,179.536027 594.065051,195 C594.065051,210.463973 582.200597,223 567.565051,223 C570.395585,307.41023 632.198277,316.971624 670.964589,265.240716 C674.167785,260.022509 677.311445,255.168655 680.392471,250.654889 C667.739355,248.540367 658.065051,236.96391 658.065051,223 C658.065051,207.536027 669.929505,195 684.565051,195 C696.579844,195 706.727115,203.448404 709.975955,215.029532 C745.964307,181.228926 768.016401,196.104302 768.016401,196.104302 C696.397748,258.562306 636.662335,408 636.662335,408 L384.274325,408 L131.886315,408 C131.886315,408 72.1509021,258.562306 0.532250058,196.104302 C0.532249599,196.104302 22.5843438,181.228926 58.572696,215.029532 C61.8215352,203.448404 71.9688066,195 83.9835995,195 C98.6191454,195 110.483599,207.536027 110.483599,223 C110.483599,236.96391 100.809296,248.540367 88.1561798,250.654889 C91.2372056,255.168655 94.3808657,260.022509 97.5840613,265.240716 C136.350373,316.971624 198.153066,307.41023 202.638392,222.946296 C186.348054,223 174.483599,210.463973 174.483599,195 C174.483599,179.536027 186.348054,167 200.983599,167 C215.619145,167 227.483599,179.536027 227.483599,195 C227.483599,205.082201 222.440282,213.919797 214.873809,218.849988 C256.754251,267.58334 345.499579,278.251465 357.762869,191.86214 C351.642352,196.9589 343.916951,200 335.519314,200 C315.656787,200 299.555028,182.98682 299.555028,162 C299.555028,141.01318 315.656787,124 335.519314,124 C340.174323,124 344.622771,124.934453 348.7058,126.63551 C348.075564,124.900073 347.412813,123.115746 346.716027,121.28125 C326.160805,78.9108854 378.607687,28.0421736 384.048658,2.07163647 L384.274325,0.837258145 Z"></path>
                <rect id="Path" x="132" y="458" width="505" height="50"></rect>
            </g>
        </g>
    </g>
</svg>