<?xml version="1.0" encoding="UTF-8" standalone="no"?>
<svg width="979px" height="1314px" viewBox="0 0 979 1314" version="1.1" xmlns="http://www.w3.org/2000/svg" xmlns:xlink="http://www.w3.org/1999/xlink" xmlns:sketch="http://www.bohemiancoding.com/sketch/ns">
    <!-- Generator: Sketch 3.2.2 (9983) - http://www.bohemiancoding.com/sketch -->
    <title>royal cruise 1</title>
    <desc>Created with Sketch.</desc>
    <defs></defs>
    <g id="Page-1" stroke="none" stroke-width="1" fill="none" fill-rule="evenodd" sketch:type="MSPage">
        <g id="royal-cruise-1" sketch:type="MSLayerGroup" fill="#2818BF">
            <path d="M435.279483,358.078125 C434.326431,337.911751 433.239515,324.513996 432,320.2 L248.287682,238.715073 C243.156443,236.662577 239,230.523659 239,225.001813 L239,169.998187 C239,164.480883 243.478763,160 249.003597,160 L428.996403,160 C434.51855,160 441.001063,155.997874 443.469499,151.061002 L459.530514,100.080468 C461.996418,95.1486597 468.476303,91.14147 473.998087,91.14147 L489.000013,91.14147 L504.001938,91.14147 C509.518843,91.14147 516.001075,95.1435957 518.469511,100.080468 L534.530501,151.061002 C536.996405,155.99281 543.478763,160 549.003597,160 L728.996403,160 C734.51855,160 739,164.476341 739,169.998187 L739,225.001813 C739,230.519117 734.841763,236.663295 729.712318,238.715073 L547,319.8 C545.886491,323.719552 544.892614,337.358545 544.006202,358.078125 L435.279483,358.078125 Z M440.0272,968.078125 C431.325455,1055.57939 382.786066,1251.54348 97.6305259,943.793452 C97.630528,943.79345 128.603238,932.040768 162.168858,921.448257 C68.8601192,895.073425 9.38081713,794.247025 9.38081713,794.247025 C9.38081713,794.247025 -10.8114501,951.581938 9.38081713,1018.68919 C12.3409833,1027.38547 38.9412964,973.573649 43.3363429,983.567398 C86.3957727,1081.4788 214.723001,1234.65848 417.447159,1275 C439.954098,1279.47882 452.000013,1275.00002 489.000013,1313.17793 C526.81297,1275.00002 538.858854,1279.47882 561.365793,1275 C764.089951,1234.65848 892.41718,1081.4788 935.476609,983.567398 C939.871656,973.573649 966.471969,1027.38547 969.432135,1018.68919 C989.624402,951.581938 969.432135,794.247025 969.432135,794.247025 C969.432135,794.247025 909.952833,895.073425 816.644094,921.448257 C850.209715,932.040768 881.182424,943.79345 881.182426,943.793452 C601.122667,1246.04393 549.844336,1058.55497 539.543913,968.078125 L440.0272,968.078125 Z" id="anchor" sketch:type="MSShapeGroup"></path>
            <path d="M489,151 C530.421356,151 564,117.197499 564,75.5 C564,33.8025014 530.421356,0 489,0 C447.578644,0 414,33.8025014 414,75.5 C414,117.197499 447.578644,151 489,151 L489,151 Z M489.5,113 C510.210678,113 527,95.9868205 527,75 C527,54.0131795 510.210678,37 489.5,37 C468.789322,37 452,54.0131795 452,75 C452,95.9868205 468.789322,113 489.5,113 L489.5,113 Z" id="anchor-ring" sketch:type="MSShapeGroup"></path>
            <g id="crown" transform="translate(16.000000, 415.000000)" sketch:type="MSShapeGroup">
                <path d="M440.196496,118.28125 C440.893282,120.115746 441.556033,121.900073 442.186268,123.63551 C438.103239,121.934453 433.654792,121 428.999783,121 C409.137256,121 393.035497,138.01318 393.035497,159 C393.035497,179.98682 409.137256,197 428.999783,197 C437.397419,197 445.122821,193.9589 451.243338,188.86214 C438.980047,275.251465 350.23472,264.58334 308.354278,215.849988 C315.920751,210.919797 320.964068,202.082201 320.964068,192 C320.964068,176.536027 309.099614,164 294.464068,164 C279.828522,164 267.964068,176.536027 267.964068,192 C267.964068,207.463973 279.828522,220 294.464068,220 C293.716368,265.188037 286.927734,289.476562 258.15625,293.949219 C229.487244,298.405944 181.072265,245.381836 181.072266,245.381836 C185.729794,240.455355 188,235.021728 188,227.707031 C188,212.519201 175.687831,200.207031 160.5,200.207031 C145.312169,200.207031 133,212.519201 133,227.707031 C133,242.894862 145.312169,255.207031 160.5,255.207031 C160.5,255.207031 163.074341,255.207031 165.886719,254.572266 C167.168602,255.514748 190.076576,286.371094 205.314453,323.171875 C220.55233,359.972656 225.366784,405 223,405 L473,405 L723.297739,405 C720.930955,405 725.745409,359.972656 740.983286,323.171875 C756.221163,286.371094 779.129138,255.514748 780.411021,254.572266 C783.223399,255.207031 785.797739,255.207031 785.797739,255.207031 C800.98557,255.207031 813.297739,242.894862 813.297739,227.707031 C813.297739,212.519201 800.98557,200.207031 785.797739,200.207031 C770.609909,200.207031 758.297739,212.519201 758.297739,227.707031 C758.297739,235.021728 760.567945,240.455355 765.225474,245.381836 C765.225474,245.381836 716.810496,298.405944 688.141489,293.949219 C659.370005,289.476562 652.581371,265.188037 650.178879,219.946296 C666.469217,220 678.333671,207.463973 678.333671,192 C678.333671,176.536027 666.469217,164 651.833671,164 C637.198125,164 625.333671,176.536027 625.333671,192 C625.333671,202.082201 630.376988,210.919797 637.943462,215.849988 C596.063019,264.58334 507.317692,275.251465 495.054402,188.86214 C501.174919,193.9589 508.90032,197 517.297957,197 C537.160483,197 553.262243,179.98682 553.262243,159 C553.262243,138.01318 537.160483,121 517.297957,121 C512.642948,121 508.1945,121.934453 504.111471,123.63551 C504.741706,121.900073 505.404458,120.115746 506.101244,118.28125 C526.2529,76.742755 476.240853,27.0363379 473,0.62983703 C470.056883,27.0363408 420.044841,76.7427562 440.196496,118.28125 Z"></path>
                <rect id="Path" x="223" y="453" width="500" height="50"></rect>
            </g>
        </g>
    </g>
</svg>