<?xml version="1.0" encoding="UTF-8" standalone="no"?>
<svg width="778px" height="778px" viewBox="0 0 778 778" version="1.1" xmlns="http://www.w3.org/2000/svg" xmlns:xlink="http://www.w3.org/1999/xlink">
    <title>Styx</title>
    <defs>
        <circle id="path-1" cx="369" cy="369" r="369"></circle>
    </defs>
    <g id="Page-1" stroke="none" stroke-width="1" fill="none" fill-rule="evenodd" sketch:type="MSPage">
        <g id="Group-4" sketch:type="MSLayerGroup" transform="translate(20.000000, 20.000000)">
            <mask id="mask-2" sketch:name="Oval 1" fill="white">
                <use xlink:href="#path-1"></use>
            </mask>
            <use id="Oval-1" stroke="#979797" stroke-width="20" sketch:type="MSShapeGroup" xlink:href="#path-1"></use>
            <circle id="Oval-2" stroke="#979797" stroke-width="20" sketch:type="MSShapeGroup" mask="url(#mask-2)" cx="333.5" cy="248.5" r="170.5"></circle>
            <path d="M400.266669,414.020159 C400.266669,414.020159 411.993232,570.895159 400.266669,675.887346 C388.540107,780.879534 320.802921,949.563555 320.802921,949.563555" id="Path-1" stroke="#979797" stroke-width="20" sketch:type="MSShapeGroup" mask="url(#mask-2)">
                <g transform="translate(363.258857, 681.613909) rotate(-9.000000) translate(-363.258857, -681.613909) "></g>
            </path>
            <path d="M389.851562,560.085938 C389.851562,560.085938 492.945312,654.054688 598.460938,632.679688 C703.976562,611.304688 712.570312,483.21875 712.570312,483.21875" id="Path-2" stroke="#979797" stroke-width="20" sketch:type="MSShapeGroup" mask="url(#mask-2)"></path>
            <path d="M117.39503,553.221153 C117.39503,553.221153 192.949885,639.199318 298.46551,617.824318 C403.981135,596.449318 391.310557,519.086426 391.310557,519.086426" id="Path-4" stroke="#979797" stroke-width="20" sketch:type="MSShapeGroup" mask="url(#mask-2)">
                <g transform="translate(254.543467, 570.135216) scale(-1, 1) rotate(2.000000) translate(-254.543467, -570.135216) "></g>
            </path>
            <path d="M653.130045,579 C670.946347,579 702.805068,573.066124 719.371639,549.08203 C729.887059,533.858432 743.676572,489.304869 731.524106,464.812681 C719.371639,440.320494 663.482351,451.003907 638.729821,451.003907 C633.379213,451.003907 633.291579,383.181847 616.484865,362.515625 C603.701741,346.796972 579.304372,346.523437 575.980381,362.515625 C572.65639,378.507812 600.862625,405.617516 604.371637,439.328126 C607.544056,469.805135 600.394619,501.879361 600.394619,513.5 C600.394619,549.674651 624.005073,579 653.130045,579 Z" id="Oval-6" stroke="#979797" stroke-width="20" sketch:type="MSShapeGroup" mask="url(#mask-2)"></path>
            <path d="M112.827354,639 C129.418785,639 159.087219,633.066124 174.514839,609.08203 C184.307324,593.858432 197.148808,549.304869 185.831824,524.812681 C178.465138,508.869719 154.626772,509.787908 132.524492,512.371441 C120.672405,513.756831 109.319532,515.621092 101.273438,515.621092 C96.2906849,515.621092 94.3527826,443.181847 78.701531,422.515625 C66.7972463,406.796972 44.0771966,406.523437 40.98173,422.515625 C37.8862633,438.507812 64.1533196,465.617516 67.4210867,499.328126 C70.375402,529.805135 63.7174888,561.879361 63.7174888,573.5 C63.7174888,609.674651 85.7047245,639 112.827354,639 Z" id="Oval-7" stroke="#979797" stroke-width="20" sketch:type="MSShapeGroup" mask="url(#mask-2)">
                <g transform="translate(115.500000, 525.000000) scale(-1, 1) translate(-115.500000, -525.000000) "></g>
            </path>
            <circle id="Oval-9" fill="#979797" sketch:type="MSShapeGroup" mask="url(#mask-2)" cx="378" cy="209" r="22"></circle>
            <circle id="Oval-8" fill="#979797" sketch:type="MSShapeGroup" mask="url(#mask-2)" cx="268" cy="231" r="22"></circle>
            <path d="M169.681641,192.880859 C169.681641,192.880859 144.1875,146.1875 169.681641,117.24707 C195.175782,88.3066407 208.360577,99.450314 237.035154,107.160156 C251.148681,92.0173495 253.921873,41.6132813 345.156248,41.6132813 C436.390623,41.6132813 460.474597,111.013672 475.628894,153.068359" id="Path-17" stroke="#979797" stroke-width="20" stroke-linecap="round" stroke-linejoin="round" sketch:type="MSShapeGroup" mask="url(#mask-2)"></path>
            <path d="M345.875,378.165799 C345.875,378.165799 366.320312,415.109375 366.320312,374.15625 C363.138672,374.15625 345.875,378.165799 345.875,378.165799 Z" id="Path-16" stroke="#979797" stroke-width="20" stroke-linecap="round" stroke-linejoin="round" sketch:type="MSShapeGroup" mask="url(#mask-2)"></path>
            <path d="M275.820312,279.960938 C275.820312,279.960938 304.78125,356.695312 356.023438,346.882812 C407.265625,337.070312 397.40625,259.976562 397.40625,259.976562 L275.820312,279.960938 Z" id="grin" stroke="#979797" stroke-width="20" stroke-linecap="round" stroke-linejoin="round" sketch:type="MSShapeGroup" mask="url(#mask-2)"></path>
        </g>
    </g>
</svg>