<svg width="1032" height="1013" xmlns="http://www.w3.org/2000/svg" xmlns:xlink="http://www.w3.org/1999/xlink"><defs><radialGradient cx="40.298%" cy="44.602%" fx="40.298%" fy="44.602%" r="43.507%" id="b"><stop stop-color="#FFF" stop-opacity=".35" offset="0%"/><stop stop-color="#FFF" stop-opacity="0" offset="100%"/></radialGradient><ellipse id="a" cx="414.931" cy="617.674" rx="180.92" ry="179.696"/><filter x="-50%" y="-50%" width="200%" height="200%" filterUnits="objectBoundingBox" id="c"><feOffset dx="2" dy="4" in="SourceAlpha" result="shadowOffsetOuter1"/><feGaussianBlur stdDeviation="15" in="shadowOffsetOuter1" result="shadowBlurOuter1"/><feColorMatrix values="0 0 0 0 0 0 0 0 0 0 0 0 0 0 0 0 0 0 0.144545403 0" in="shadowBlurOuter1" result="shadowMatrixOuter1"/><feMerge><feMergeNode in="shadowMatrixOuter1"/><feMergeNode in="SourceGraphic"/></feMerge></filter><radialGradient cx="32.492%" cy="33.218%" fx="32.492%" fy="33.218%" r="24.252%" id="e"><stop stop-color="#FFF" stop-opacity=".8" offset="0%"/><stop stop-color="#FFF" stop-opacity=".02" offset="100%"/></radialGradient><path id="d" d="M126.989 289.818c-1.793-22.69-22.272-39.24-45.741-36.967-23.47 2.274-53.84 36.967-59.56 63.947-5.72 26.98 59.56 18.002 79.185 13.698 19.625-4.303 27.909-17.987 26.116-40.678z"/><path id="f" d="M167.392 257.109c-1.245-15.75-15.252-27.257-31.287-25.703-16.035 1.553-32.397 27.771-31.152 43.52 1.244 15.75 19.622 15.065 35.657 13.512 16.035-1.554 28.026-15.58 26.782-31.33z"/><path id="g" d="M110.72 189.672c-.776-9.816-8.531-17.083-17.322-16.231-8.79.852-15.288 9.5-14.513 19.315.776 9.816 7.272 23.246 14.513 20.227 7.241-3.02 18.097-13.496 17.321-23.311z"/><path id="h" d="M164.762 182.16c10.043-2.845 10.825-16.87 9.883-28.793-1.026-12.985-11.158-22.61-22.632-21.499-11.473 1.112-19.943 12.54-18.917 25.524 1.026 12.985 21.624 27.613 31.666 24.768z"/><path id="i" d="M86.051 463.97c-12.61-19.042-18.402-21.484-43.604-19.042C17.245 447.37-1.68 468.4.177 491.9c1.856 23.5 10.67 55.898 52.811 44.359 42.142-11.54 45.674-53.25 33.063-72.29z"/><path id="j" d="M163.369 351.367c-.774-9.799-8.28-17.075-16.766-16.253-8.485.822-23.912 4.78-24.687 22.716-.774 17.937 19.005 13.59 27.49 12.768 8.486-.823 14.737-9.432 13.963-19.23z"/><path id="k" d="M164.07 382.04c-6.63-18.05-14.556-16.893-38.775-14.077-24.22 2.817-39.243 26.062-30.273 48.684 8.97 22.622 37.658 28.836 55.815 12.077 18.156-16.76 19.862-28.636 13.232-46.685z"/><path id="l" d="M122.196 119.775c-.522-6.604-5.476-11.519-11.065-10.977-5.59.541-9.698 6.334-9.176 12.938.522 6.604 5.476 11.519 11.065 10.977 5.59-.541 9.697-6.334 9.176-12.938z"/><path id="m" d="M79.37 247.253c-.521-6.604-5.475-11.518-11.064-10.977-5.59.542-9.698 6.334-9.176 12.938.522 6.605 5.476 11.52 11.065 10.978 5.59-.542 9.697-6.334 9.176-12.939z"/><path id="n" d="M136.167 305.924c-.19-2.376-1.984-4.144-4.01-3.95-2.025.195-3.513 2.28-3.324 4.655.189 2.376 1.984 4.144 4.01 3.949 2.024-.195 3.513-2.279 3.324-4.654z"/><path id="o" d="M61.868 357.315c-.19-2.376-1.985-4.144-4.01-3.95-2.025.196-3.514 2.28-3.325 4.655.19 2.376 1.985 4.144 4.01 3.95 2.025-.195 3.514-2.28 3.325-4.655z"/><path id="p" d="M71.75 407.602c-.19-2.376-1.985-4.144-4.01-3.949-2.025.195-3.514 2.279-3.325 4.655.19 2.375 1.984 4.143 4.01 3.949 2.025-.195 3.514-2.28 3.325-4.655z"/><path id="q" d="M174.972 378.55c-.189-2.375-1.984-4.143-4.01-3.948-2.025.195-3.513 2.278-3.324 4.654.189 2.376 1.984 4.144 4.01 3.95 2.025-.196 3.513-2.28 3.324-4.655z"/><path id="r" d="M169.638 305.43c-.521-5.693-5.475-9.93-11.065-9.463-5.589.467-9.697 5.46-9.175 11.155.521 5.693 5.475 9.93 11.065 9.464 5.589-.467 9.697-5.461 9.175-11.155z"/><path id="s" d="M97.409 356.822c-.413-5.693-4.334-9.93-8.758-9.464-4.424.467-7.676 5.461-7.263 11.155.413 5.694 4.334 9.93 8.758 9.464 4.424-.467 7.676-5.461 7.263-11.155z"/><path id="t" d="M84.115 152.367c6.205-.602 10.759-7.116 10.172-14.55-.588-7.435-6.094-12.974-12.299-12.373-6.205.601-10.759 7.115-10.171 14.55.587 7.434 6.093 12.974 12.298 12.373z"/><path id="u" d="M94.316 79.882c4.427-.429 7.713-4.625 7.337-9.374-.375-4.748-4.268-8.25-8.695-7.82-4.428.429-7.713 4.626-7.338 9.374s4.268 8.25 8.696 7.82z"/><path id="v" d="M144.104 79.9c3.155-.214 5.496-2.313 5.228-4.687-.267-2.374-3.041-4.125-6.196-3.91-3.155.214-5.496 2.313-5.23 4.687.268 2.374 3.043 4.125 6.198 3.91z"/><path id="w" d="M120.914 33.338c2.027-.215 3.531-2.313 3.36-4.687-.172-2.374-1.955-4.125-3.981-3.91-2.027.214-3.531 2.312-3.36 4.686.172 2.374 1.955 4.125 3.981 3.91z"/><path id="x" d="M134.514 66.951c2.027-.215 3.53-2.313 3.359-4.687-.172-2.374-1.954-4.125-3.981-3.91-2.027.214-3.53 2.313-3.36 4.687.173 2.374 1.955 4.124 3.982 3.91z"/><path id="y" d="M65.878 181.988c2.027-.214 3.53-2.313 3.359-4.687-.172-2.374-1.954-4.125-3.98-3.91-2.028.214-3.532 2.313-3.36 4.687.172 2.374 1.954 4.125 3.981 3.91z"/><path id="z" d="M117.231 213.398c2.027-.215 3.53-2.313 3.36-4.687-.173-2.374-1.955-4.125-3.982-3.91-2.027.214-3.53 2.312-3.359 4.686.172 2.374 1.954 4.125 3.981 3.91z"/><path id="A" d="M137.256 9.2c2.026-.214 3.53-2.313 3.359-4.687-.172-2.374-1.954-4.124-3.981-3.91-2.027.215-3.531 2.313-3.36 4.687.172 2.374 1.955 4.125 3.982 3.91z"/><ellipse id="B" cx="424.5" cy="614.5" rx="193.382" ry="199.843"/><radialGradient cx="64.471%" cy="19.197%" fx="64.471%" fy="19.197%" r="79.087%" id="D"><stop stop-color="#2A6E09" stop-opacity="0" offset="0%"/><stop stop-color="#308706" stop-opacity=".4" offset="100%"/></radialGradient><radialGradient cx="63.339%" cy="27.259%" fx="63.339%" fy="27.259%" r="89.324%" id="E"><stop stop-color="#FFEF6E" stop-opacity=".301" offset="0%"/><stop stop-color="#C6FA6E" stop-opacity=".113" offset="67.773%"/><stop stop-color="#BAFF6E" stop-opacity="0" offset="100%"/></radialGradient><radialGradient cx="31.054%" cy="-4.953%" fx="31.054%" fy="-4.953%" r="60.637%" id="F"><stop stop-color="#FFEF6E" stop-opacity=".301" offset="0%"/><stop stop-color="#C6FA6E" stop-opacity=".113" offset="67.773%"/><stop stop-color="#BAFF6E" stop-opacity="0" offset="100%"/></radialGradient><path d="M786.832 512.478c-3.919-2.447-7.969-5.212-12.054-8.66-23.161-19.544-35.298-40.477-70.03-108.079-22.839-44.455-85.58-92.286-169.76-115.582l-5.43-194.47c-.522-6.663-17.065-13.688-23.016-13.107-5.964.582-10.375 6.452-9.853 13.108l14.791 188.737c-34.102-7.213-71.176-10.354-110.145-7.794l-3.332-42.518c-.9-11.484-9.969-19.979-20.26-18.974-10.29 1.005-17.902 11.128-17.001 22.613l3.355 42.82c-49.536 6.967-97.452 20.426-140.509 40.523L201.787 32.909c-1.801-22.977-10.133-34.194-37.404-31.53L79.37 9.68c-2.634.258-4.593 2.854-4.362 5.799l6.567 83.786c.23 2.95 2.558 5.123 5.199 4.865l46.804-4.571c2.64-.258 4.97 1.926 5.2 4.88l19.239 245.475c-55.78 41.508-96.328 98.456-110.355 171.35-10.37 53.889-55.657 79.54-46.428 129.286 9.229 49.746 25.51 33.37 42.329 83.487 44.55 132.75 213.677 244.054 399.915 226.042 156.094-15.096 245.979-88.308 285.068-179.978 39.089-91.67 32.116-88.642 49.054-126.523 5.1-11.406 11.577-20.305 18.048-28.326l8.685 111.113c.463 5.919 5.12 10.283 10.404 9.765l53.762-5.265c5.28-.517 9.193-5.728 8.73-11.639L853.157 421.24c-.463-5.919-5.12-10.283-10.404-9.765l-53.762 5.265c-5.28.517-9.193 5.728-8.73 11.639l6.572 84.098zm-354.23 270.75c93.53-8.183 162.719-90.639 154.536-184.17-8.183-93.53-90.638-162.72-184.17-154.536-93.53 8.183-162.719 90.638-154.536 184.17 8.183 93.53 90.638 162.719 184.17 154.536z" id="C"/></defs><g fill="none" fill-rule="evenodd"><g transform="translate(23 21)"><use fill-opacity=".2" fill="#FFF" xlink:href="#a"/><use fill="url(#b)" xlink:href="#a"/></g><path d="M399.306 626.5l45.686-24.914c1.078-.597 1.893-.983 2.443-1.156a7.368 7.368 0 0 1 1.573-.326c1.247-.11 2.285.27 3.115 1.14.83.87 1.948 2.877 3.354 6.02l6.423 15.268a28.508 28.508 0 0 1 1.458 3.735c.353 1.163.557 2.056.611 2.68.098 1.121-.287 2.097-1.157 2.927-.87.83-2.286 1.52-4.248 2.068l-49.545 15.264 37.814 35.889c.95.796 1.714 1.64 2.295 2.532.58.891.909 1.773.985 2.646.054.623-.433 1.514-1.462 2.672-1.03 1.158-2.42 2.504-4.17 4.04l-12.256 10.683c-1.274 1.242-2.51 2.198-3.707 2.868-1.197.67-2.17 1.038-2.918 1.103-.748.066-1.592-.237-2.53-.91-.938-.67-1.836-1.597-2.693-2.779l-30.076-42.219-22.101 46.784c-.742 1.573-1.49 2.706-2.247 3.4-.756.695-1.508 1.075-2.256 1.14-.748.065-1.806-.187-3.175-.759-1.37-.57-2.851-1.352-4.445-2.343l-13.926-8.393c-2.115-1.197-3.683-2.253-4.706-3.168-1.022-.916-1.566-1.748-1.631-2.496-.077-.873.094-1.798.51-2.777.417-.979 1.024-1.943 1.82-2.892l31.447-41.194-51.475-6.804c-2.028-.2-3.607-.658-4.738-1.375-1.13-.718-1.74-1.576-1.827-2.573-.054-.623-.014-1.6.12-2.931.136-1.331.392-2.704.771-4.12l4.082-15.81c1.287-5.388 2.82-7.972 4.565-8.125a10.47 10.47 0 0 1 2.363.076c.826.116 1.63.328 2.411.637l48.636 17.416-9.989-51.703-.163-1.87c-.197-2.244.293-3.826 1.469-4.745 1.176-.92 3.696-1.548 7.561-1.887l16.458-1.44c3.74-.327 6.269-.14 7.586.562 1.318.701 2.075 2.174 2.272 4.418l.163 1.87-.55 51.871zm129.011 27.95l34.731-3.039c1.557-.136 2.823.047 3.798.55.975.503 1.505 1.241 1.59 2.214.043.486-.025 1.105-.205 1.856a27.24 27.24 0 0 1-.738 2.49l-36.15 89.331c-.545 1.616-1.41 2.942-2.593 3.977a7.03 7.03 0 0 1-4.111 1.756c-.39.034-.858.002-1.405-.097a22.67 22.67 0 0 0-1.565-.231l-11.435-2.97c-1.705-.439-3.04-1.13-4.005-2.076-.964-.945-1.498-2-1.6-3.168-.094-1.07-.14-1.875-.138-2.414.002-.54.03-1.057.085-1.552l14.083-77.695c.586-3.384 1.54-5.649 2.861-6.794 1.321-1.144 3.587-1.857 6.797-2.138zm-.442-80.689c9.145-.8 16.733 1.06 22.766 5.581 6.032 4.521 9.401 10.819 10.108 18.894.723 8.269-1.487 15.226-6.63 20.872-5.142 5.645-12.286 8.868-21.43 9.668-8.951.783-16.448-1.159-22.493-5.826-6.045-4.666-9.43-11.134-10.153-19.403-.698-7.978 1.529-14.74 6.68-20.289 5.151-5.548 12.202-8.714 21.152-9.497z" stroke="#4A4A4A" stroke-width="12" fill="#FFF"/><path d="M786.832 512.478c-3.919-2.447-7.969-5.212-12.054-8.66-23.161-19.544-35.298-40.477-70.03-108.079-22.958-44.688-86.24-92.787-171.086-115.947L518.285 83.591c-.522-6.664-5.792-11.592-11.743-11.011-5.964.582-10.375 6.452-9.853 13.108l14.791 188.737c-34.102-7.213-71.176-10.354-110.145-7.794l-3.332-42.518c-.9-11.484-9.969-19.979-20.26-18.974-10.29 1.005-17.902 11.128-17.001 22.613l3.355 42.82c-49.536 6.967-97.452 20.426-140.509 40.523L201.787 32.909c-1.801-22.977-10.133-34.194-37.404-31.53L79.37 9.68c-2.634.258-4.593 2.854-4.362 5.799l6.567 83.786c.23 2.95 2.558 5.123 5.199 4.865l46.804-4.571c2.64-.258 4.97 1.926 5.2 4.88l19.239 245.475c-55.78 41.508-96.328 98.456-110.355 171.35-10.37 53.889-55.657 79.54-46.428 129.286 9.229 49.746 25.51 33.37 42.329 83.487 44.55 132.75 213.677 244.054 399.915 226.042 156.094-15.096 245.979-88.308 285.068-179.978 39.089-91.67 32.116-88.642 49.054-126.523 5.1-11.406 11.577-20.305 18.048-28.326l8.685 111.113c.463 5.919 5.12 10.283 10.404 9.765l53.762-5.265c5.28-.517 9.193-5.728 8.73-11.639L853.157 421.24c-.463-5.919-5.12-10.283-10.404-9.765l-53.762 5.265c-5.28.517-9.193 5.728-8.73 11.639l6.572 84.098zM404 904.05c181.15 0 328-129.166 328-288.5s-146.85-288.5-328-288.5S76 456.217 76 615.55s146.85 288.5 328 288.5z" fill="#fff" filter="url(#c)" transform="translate(23 21)"/><g transform="translate(856.536 194.899)"><use fill-opacity=".6" fill="#FFF" xlink:href="#d"/><use fill="url(#e)" xlink:href="#d"/><use fill-opacity=".15" fill="#00A2FF" xlink:href="#d"/></g><g transform="translate(856.536 194.899)"><use fill-opacity=".6" fill="#FFF" xlink:href="#f"/><use fill="url(#e)" xlink:href="#f"/><use fill-opacity=".15" fill="#00A2FF" xlink:href="#f"/></g><g transform="translate(856.536 194.899)"><use fill-opacity=".6" fill="#FFF" xlink:href="#g"/><use fill="url(#e)" xlink:href="#g"/><use fill-opacity=".15" fill="#00A2FF" xlink:href="#g"/></g><g transform="translate(856.536 194.899)"><use fill-opacity=".6" fill="#FFF" xlink:href="#h"/><use fill="url(#e)" xlink:href="#h"/><use fill-opacity=".15" fill="#00A2FF" xlink:href="#h"/></g><g transform="translate(856.536 194.899)"><use fill-opacity=".6" fill="#FFF" xlink:href="#i"/><use fill="url(#e)" xlink:href="#i"/><use fill-opacity=".15" fill="#00A2FF" xlink:href="#i"/></g><g transform="translate(856.536 194.899)"><use fill-opacity=".6" fill="#FFF" xlink:href="#j"/><use fill="url(#e)" xlink:href="#j"/><use fill-opacity=".15" fill="#00A2FF" xlink:href="#j"/></g><g transform="translate(856.536 194.899)"><use fill-opacity=".6" fill="#FFF" xlink:href="#k"/><use fill="url(#e)" xlink:href="#k"/><use fill-opacity=".15" fill="#00A2FF" xlink:href="#k"/></g><g transform="translate(856.536 194.899)"><use fill-opacity=".6" fill="#FFF" xlink:href="#l"/><use fill="url(#e)" xlink:href="#l"/><use fill-opacity=".15" fill="#00A2FF" xlink:href="#l"/></g><g transform="translate(856.536 194.899)"><use fill-opacity=".6" fill="#FFF" xlink:href="#m"/><use fill="url(#e)" xlink:href="#m"/><use fill-opacity=".15" fill="#00A2FF" xlink:href="#m"/></g><g transform="translate(856.536 194.899)"><use fill-opacity=".6" fill="#FFF" xlink:href="#n"/><use fill="url(#e)" xlink:href="#n"/><use fill-opacity=".15" fill="#00A2FF" xlink:href="#n"/></g><g transform="translate(856.536 194.899)"><use fill-opacity=".6" fill="#FFF" xlink:href="#o"/><use fill="url(#e)" xlink:href="#o"/><use fill-opacity=".15" fill="#00A2FF" xlink:href="#o"/></g><g transform="translate(856.536 194.899)"><use fill-opacity=".6" fill="#FFF" xlink:href="#p"/><use fill="url(#e)" xlink:href="#p"/><use fill-opacity=".15" fill="#00A2FF" xlink:href="#p"/></g><g transform="translate(856.536 194.899)"><use fill-opacity=".6" fill="#FFF" xlink:href="#q"/><use fill="url(#e)" xlink:href="#q"/><use fill-opacity=".15" fill="#00A2FF" xlink:href="#q"/></g><g transform="translate(856.536 194.899)"><use fill-opacity=".6" fill="#FFF" xlink:href="#r"/><use fill="url(#e)" xlink:href="#r"/><use fill-opacity=".15" fill="#00A2FF" xlink:href="#r"/></g><g transform="translate(856.536 194.899)"><use fill-opacity=".6" fill="#FFF" xlink:href="#s"/><use fill="url(#e)" xlink:href="#s"/><use fill-opacity=".15" fill="#00A2FF" xlink:href="#s"/></g><g transform="translate(856.536 194.899)"><use fill-opacity=".6" fill="#FFF" xlink:href="#t"/><use fill="url(#e)" xlink:href="#t"/><use fill-opacity=".15" fill="#00A2FF" xlink:href="#t"/></g><g transform="translate(856.536 194.899)"><use fill-opacity=".6" fill="#FFF" xlink:href="#u"/><use fill="url(#e)" xlink:href="#u"/><use fill-opacity=".15" fill="#00A2FF" xlink:href="#u"/></g><g transform="translate(856.536 194.899)"><use fill-opacity=".6" fill="#FFF" xlink:href="#v"/><use fill="url(#e)" xlink:href="#v"/><use fill-opacity=".15" fill="#00A2FF" xlink:href="#v"/></g><g transform="translate(856.536 194.899)"><use fill-opacity=".6" fill="#FFF" xlink:href="#w"/><use fill="url(#e)" xlink:href="#w"/><use fill-opacity=".15" fill="#00A2FF" xlink:href="#w"/></g><g transform="translate(856.536 194.899)"><use fill-opacity=".6" fill="#FFF" xlink:href="#x"/><use fill="url(#e)" xlink:href="#x"/><use fill-opacity=".15" fill="#00A2FF" xlink:href="#x"/></g><g transform="translate(856.536 194.899)"><use fill-opacity=".6" fill="#FFF" xlink:href="#y"/><use fill="url(#e)" xlink:href="#y"/><use fill-opacity=".15" fill="#00A2FF" xlink:href="#y"/></g><g transform="translate(856.536 194.899)"><use fill-opacity=".6" fill="#FFF" xlink:href="#z"/><use fill="url(#e)" xlink:href="#z"/><use fill-opacity=".15" fill="#00A2FF" xlink:href="#z"/></g><g transform="translate(856.536 194.899)"><use fill-opacity=".6" fill="#FFF" xlink:href="#A"/><use fill="url(#e)" xlink:href="#A"/><use fill-opacity=".15" fill="#00A2FF" xlink:href="#A"/></g><g transform="translate(23 21)"><use fill-opacity=".2" fill="#FFF" xlink:href="#B"/><use xlink:href="#B"/></g><path d="M280.442 626.353s-7.893 123.363 109.698 159.646c16.426 0-5.602-15.894-5.602-15.894s-63.839-46.016-58.155-122.399c-17.52-20.7-45.941-21.353-45.941-21.353zm4.135-20.492s23.824-6.029 45.513 18.447c-8.52-60.746 37.031-114.43 37.031-114.43s0-13.004-13.664-7.062c-68.88 46.644-68.88 103.045-68.88 103.045z" fill-opacity=".5" fill="#FFF"/><g transform="translate(23 21)"><use xlink:href="#C"/><use fill="#8AEC1E" xlink:href="#C"/><use fill-opacity=".85" fill="url(#D)" xlink:href="#C"/><use fill="url(#E)" xlink:href="#C"/><use fill="url(#F)" xlink:href="#C"/><use xlink:href="#C"/></g></g></svg>