<?xml version="1.0" encoding="UTF-8"?>
<svg width="256px" height="256px" viewBox="0 0 256 256" version="1.1" xmlns="http://www.w3.org/2000/svg" xmlns:xlink="http://www.w3.org/1999/xlink">
    <!-- Generator: Sketch 47.1 (45422) - http://www.bohemiancoding.com/sketch -->
    <title>favicon.svg</title>
    <desc>Created with Sketch.</desc>
    <defs></defs>
    <g id="Page-1" stroke="none" stroke-width="1" fill="none" fill-rule="evenodd">
        <g id="favicon.svg">
            <rect id="Rectangle" fill="#006FFF" x="0" y="0" width="256" height="256"></rect>
            <path d="M192.173828,218 L162.974609,218 L135.123047,120.070312 C133.925124,115.802713 132.427743,109.644734 130.630859,101.596191 C128.833975,93.5476486 127.748374,87.9511876 127.374023,84.8066406 C126.625322,89.5983313 125.4087,95.8124618 123.724121,103.449219 C122.039542,111.085976 120.635748,116.776023 119.512695,120.519531 L92.3349609,218 L63.1357422,218 L41.9101562,135.792969 L20.3476562,53.8105469 L47.75,53.8105469 L71.2216797,149.494141 C74.8903178,164.842525 77.5107343,178.393821 79.0830078,190.148438 C79.9065796,183.784473 81.1419188,176.671914 82.7890625,168.810547 C84.4362062,160.949179 85.933587,154.585311 87.28125,149.71875 L114.009766,53.8105469 L140.625977,53.8105469 L168.02832,150.167969 C170.648776,159.077519 173.418931,172.404208 176.338867,190.148438 C177.46192,179.442004 180.157205,165.815838 184.424805,149.269531 L207.78418,53.8105469 L234.961914,53.8105469 L192.173828,218 Z" id="open-sans-semibold" fill="#FFFFFF"></path>
        </g>
    </g>
</svg>