<svg width="256" height="256" xmlns="http://www.w3.org/2000/svg"><g fill="none" fill-rule="evenodd"><path fill="#09F" d="M0 0h256v256H0z"/><path d="M188.126 208h-27.211l-25.955-89.466c-1.117-3.9-2.512-9.525-4.187-16.878-1.674-7.353-2.686-12.466-3.035-15.339-.697 4.378-1.831 10.055-3.401 17.032-1.57 6.977-2.878 12.175-3.925 15.595L95.085 208h-27.21l-19.78-75.103L28 58h25.536l21.874 87.415c3.419 14.021 5.86 26.402 7.326 37.14.767-5.814 1.918-12.311 3.453-19.493 1.535-7.182 2.93-12.996 4.187-17.442L115.284 58h24.804l25.536 88.03c2.442 8.14 5.024 20.315 7.745 36.525 1.046-9.78 3.558-22.23 7.535-37.346L202.673 58H228l-39.874 150z" fill="#FFF"/></g></svg>