<?xml version="1.0" encoding="UTF-8" standalone="no"?>
<svg width="822px" height="274px" viewBox="0 0 822 274" version="1.1" xmlns="http://www.w3.org/2000/svg" xmlns:xlink="http://www.w3.org/1999/xlink" xmlns:sketch="http://www.bohemiancoding.com/sketch/ns">
    <!-- Generator: Sketch 3.2.2 (9983) - http://www.bohemiancoding.com/sketch -->
    <title>iconSprite</title>
    <desc>Created with Sketch.</desc>
    <defs></defs>
    <g id="Page-1" stroke="none" stroke-width="1" fill="none" fill-rule="evenodd" sketch:type="MSPage">
        <g id="iconSprite" sketch:type="MSLayerGroup">
            <g id="Group" sketch:type="MSShapeGroup">
                <g id="github">
                    <circle id="bg" fill="#FFFFFF" cx="137" cy="137" r="137"></circle>
                    <path d="M136.987,0 C61.345,0 0,61.512 0,137.395 C0,198.097 39.25,249.589 93.69,267.757 C100.545,269.022 103.043,264.779 103.043,261.137 C103.043,257.88 102.926,249.235 102.858,237.772 C64.751,246.072 56.711,219.352 56.711,219.352 C50.481,203.478 41.498,199.252 41.498,199.252 C29.058,190.734 42.44,190.902 42.44,190.902 C56.19,191.872 63.422,205.064 63.422,205.064 C75.642,226.057 95.492,219.994 103.296,216.476 C104.54,207.603 108.081,201.546 111.992,198.114 C81.572,194.648 49.587,182.856 49.587,130.209 C49.587,115.212 54.927,102.939 63.691,93.342 C62.279,89.867 57.578,75.892 65.038,56.982 C65.038,56.982 76.535,53.287 102.708,71.067 C113.633,68.014 125.358,66.495 137.005,66.437 C148.645,66.495 160.361,68.014 171.303,71.067 C197.459,53.287 208.939,56.981 208.939,56.981 C216.415,75.891 211.714,89.867 210.309,93.341 C219.089,102.941 224.389,115.211 224.389,130.208 C224.389,182.988 192.354,194.604 161.841,198.003 C166.753,202.245 171.134,210.629 171.134,223.449 C171.134,241.812 170.966,256.631 170.966,261.135 C170.966,264.812 173.439,269.088 180.386,267.747 C234.783,249.538 274,198.08 274,137.395 C274,61.512 212.655,0 136.987,0" fill="#161614"></path>
                </g>
                <g id="spotify" transform="translate(274.000000, 0.000000)">
                    <path d="M0,137 C0,212.35 61.65,274 137,274 C212.35,274 274,212.35 274,137 C274,61.65 213.035,0 137,0 C61.65,0 0,61.65 0,137 L0,137 Z" id="Shape" fill="#A2E40A"></path>
                    <path d="M200.02,197.965 C197.28,202.075 192.485,203.445 188.375,200.705 C156.18,180.84 115.765,176.73 67.815,187.69 C63.02,189.06 58.91,185.635 57.54,181.525 C56.17,176.73 59.595,172.62 63.705,171.25 C115.765,159.605 160.975,164.4 196.595,186.32 C201.39,188.375 202.075,193.855 200.02,197.965 L200.02,197.965 Z M216.46,160.29 C213.035,165.085 206.87,167.14 202.075,163.715 C165.085,141.11 108.915,134.26 65.76,147.96 C60.28,149.33 54.115,146.59 52.745,141.11 C51.375,135.63 54.115,129.465 59.595,128.095 C109.6,113.025 171.25,120.56 213.72,146.59 C217.83,148.645 219.885,155.495 216.46,160.29 L216.46,160.29 Z M217.83,121.93 C173.99,95.9 100.695,93.16 58.91,106.175 C52.06,108.23 45.21,104.12 43.155,97.955 C41.1,91.105 45.21,84.255 51.375,82.2 C100.01,67.815 180.155,70.555 230.845,100.695 C237.01,104.12 239.065,112.34 235.64,118.505 C232.215,123.3 223.995,125.355 217.83,121.93 L217.83,121.93 Z" id="Shape" fill="#222222"></path>
                </g>
                <g id="email" transform="translate(548.000000, 37.000000)">
                    <rect id="Rectangle-path" fill="#FFFFFF" x="0" y="0" width="274" height="209" rx="20"></rect>
                    <path d="M10,20 L105.922,120.454 C123.086,138.429 150.909,138.434 168.078,120.454 L264,20 L264,179.01 C264,190.05 255.053,199 244.003,199 L29.997,199 C18.953,199 10,190.047 10,179.01 L10,20 L10,20 Z" id="Shape" fill="#FF5252"></path>
                    <path d="M157.63,101.212 C146.237,113.245 127.76,113.242 116.37,101.212 L30,10 L244,10 L157.63,101.212 Z" id="Shape" fill="#FF5252"></path>
                    <rect id="Rectangle-path" stroke="#FFFFFF" stroke-width="20" x="10" y="10" width="254" height="189" rx="20"></rect>
                </g>
            </g>
        </g>
    </g>
</svg>