<svg width="1096" height="274" xmlns="http://www.w3.org/2000/svg"><g fill="none" fill-rule="evenodd"><g stroke="#4A4A4A" stroke-width="10" fill="#4A4A4A"><path d="M995.41 30.58c-5.518 0-9.99-4.478-9.99-10 0-5.525 4.477-10 10-10h80c5.525 0 10 4.476 10 10v79.999c0 5.525-4.477 10-10 10-5.524 0-10-4.473-10-9.99V44.72L954.072 156.07c-3.906 3.907-10.238 3.909-14.145.002-3.905-3.905-3.902-10.24.003-14.144L1051.278 30.58H995.41z"/><path d="M852 233.991A10 10 0 0 0 862.009 244h139.982c5.528 0 10.009-4.475 10.009-10v-80c0-5.523 4.476-10 10-10 5.523 0 10 4.485 10 10v100c0 5.523-4.481 10-10.004 10H842.004c-5.525 0-10.004-4.481-10.004-10.004V74.004C832 68.479 836.485 64 842 64h100c5.523 0 10 4.476 10 10 0 5.523-4.475 10-10 10h-80c-5.523 0-10 4.467-10 10.009V233.99z"/></g><g transform="translate(548 33)"><rect fill="#FFF" width="274" height="209" rx="20"/><path d="M20 28.942l88.37 89.824a40.024 40.024 0 0 0 57.26 0L254 28.942v142.183c0 9.872-8.243 17.875-18.422 17.875H38.422C28.248 189 20 180.994 20 171.125V28.942z" fill="#FF5252"/><path d="M156.006 101.56c-10.496 10.76-27.518 10.757-38.012 0L38.425 20h197.15l-79.57 81.56z" fill="#FF5252"/></g><path d="M274 137c0 75.35 61.65 137 137 137s137-61.65 137-137S487.035 0 411 0c-75.35 0-137 61.65-137 137z" fill="#A2E40A"/><path d="M474.02 197.965c-2.74 4.11-7.535 5.48-11.645 2.74-32.195-19.865-72.61-23.975-120.56-13.015-4.795 1.37-8.905-2.055-10.275-6.165-1.37-4.795 2.055-8.905 6.165-10.275 52.06-11.645 97.27-6.85 132.89 15.07 4.795 2.055 5.48 7.535 3.425 11.645zm16.44-37.675c-3.425 4.795-9.59 6.85-14.385 3.425-36.99-22.605-93.16-29.455-136.315-15.755-5.48 1.37-11.645-1.37-13.015-6.85-1.37-5.48 1.37-11.645 6.85-13.015 50.005-15.07 111.655-7.535 154.125 18.495 4.11 2.055 6.165 8.905 2.74 13.7zm1.37-38.36c-43.84-26.03-117.135-28.77-158.92-15.755-6.85 2.055-13.7-2.055-15.755-8.22-2.055-6.85 2.055-13.7 8.22-15.755 48.635-14.385 128.78-11.645 179.47 18.495 6.165 3.425 8.22 11.645 4.795 17.81-3.425 4.795-11.645 6.85-17.81 3.425z" fill="#222"/><circle fill="#82D" cx="137" cy="137" r="137"/><path d="M136.987 0C61.345 0 0 61.512 0 137.395c0 60.702 39.25 112.194 93.69 130.362 6.855 1.265 9.353-2.978 9.353-6.62 0-3.257-.117-11.902-.185-23.365-38.107 8.3-46.147-18.42-46.147-18.42-6.23-15.874-15.213-20.1-15.213-20.1-12.44-8.518.942-8.35.942-8.35 13.75.97 20.982 14.162 20.982 14.162 12.22 20.993 32.07 14.93 39.874 11.412 1.244-8.873 4.785-14.93 8.696-18.362-30.42-3.466-62.405-15.258-62.405-67.905 0-14.997 5.34-27.27 14.104-36.867-1.412-3.475-6.113-17.45 1.347-36.36 0 0 11.497-3.695 37.67 14.085 10.925-3.053 22.65-4.572 34.297-4.63 11.64.058 23.356 1.577 34.298 4.63 26.156-17.78 37.636-14.086 37.636-14.086 7.476 18.91 2.775 32.886 1.37 36.36 8.78 9.6 14.08 21.87 14.08 36.867 0 52.78-32.035 64.396-62.548 67.795 4.912 4.242 9.293 12.626 9.293 25.446 0 18.363-.168 33.182-.168 37.686 0 3.677 2.473 7.953 9.42 6.612C234.783 249.538 274 198.08 274 137.395 274 61.512 212.655 0 136.987 0" fill="#FFF"/></g></svg>